<svg width="34" height="30" viewBox="0 0 34 30" fill="none" xmlns="http://www.w3.org/2000/svg">
<path d="M0.195779 29.9073C1.52061 28.1691 3.18743 26.2032 5.23547 24.1848C7.63525 21.82 10.7702 19.1894 14.6805 16.7692C16.3369 15.7437 18.1361 14.7589 20.0751 13.846C20.0935 13.8363 20.1106 13.8268 20.13 13.8171C23.3108 12.1831 21.6217 8.3201 20.9258 7.00532L20.6718 6.55676L16.9642 0L0 30H0.139318L0.195779 29.9073Z" fill="#2F53E4"/>
<path d="M1 30H34L30.262 23.5882L29.6607 22.5565C27.5135 19.2069 25.1654 18.9256 24.0702 19.0126C23.2252 19.1597 22.3568 19.3292 21.4634 19.5312C20.0164 19.8591 18.4539 20.2816 16.8217 20.8224C11.7903 22.4884 6.08975 25.2921 1 30Z" fill="#2F53E4"/>
<mask id="mask0_40_5085" style="mask-type:alpha" maskUnits="userSpaceOnUse" x="1" y="19" width="33" height="11">
<path d="M1 30H34L30.262 23.5882L29.6607 22.5565C27.5135 19.2069 25.1654 18.9256 24.0702 19.0126C23.2252 19.1597 22.3568 19.3292 21.4634 19.5312C20.0164 19.8591 18.4539 20.2816 16.8217 20.8224C11.7903 22.4884 6.08975 25.2921 1 30Z" fill="#3083FF"/>
</mask>
<g mask="url(#mask0_40_5085)">
<path d="M30.3082 26.6311C30.3172 26.5954 30.3243 26.5582 30.3291 26.5218C30.3971 26.0084 30.6902 25.5131 31.1413 25.2103C31.3603 25.0623 31.5784 24.9147 31.7924 24.7605C32.226 24.4571 32.779 24.3538 33.312 24.484C33.3414 24.4912 33.3712 24.4972 33.4011 24.5022C33.9128 24.5897 34.4588 24.2971 34.4087 23.7689C34.3593 23.2481 34.2863 22.6462 33.3554 22.522C33.3255 22.518 33.2989 22.5028 33.2711 22.4952C32.7126 22.342 32.2253 21.9907 31.8833 21.5524C31.709 21.3244 31.5388 21.094 31.3718 20.8613C31.0585 20.4158 30.84 19.8902 30.8199 19.3588C30.8187 19.327 30.8159 19.2944 30.8113 19.261C30.7727 18.9807 30.6279 18.714 30.4465 18.4887C30.2764 18.2772 30.052 18.0751 29.7867 17.9775C29.2551 17.7819 28.8319 18.1924 28.7794 18.6569C28.7123 19.2494 29.1902 19.8261 29.8013 19.9924C29.8086 19.9943 29.8158 19.9962 29.823 19.9981C30.3432 20.131 30.7751 20.4712 31.0808 20.881C31.3197 21.2084 31.5498 21.5406 31.7977 21.8623C32.1031 22.2636 32.3424 22.7436 32.3304 23.2409C32.3303 23.243 32.3303 23.2451 32.3303 23.2472C32.3302 23.2493 32.3302 23.2514 32.3302 23.2535C32.3233 23.7156 32.0941 24.1199 31.7107 24.4076C31.4111 24.6264 31.1167 24.8505 30.8071 25.0569C30.3694 25.3509 29.8105 25.4578 29.2768 25.3975C29.2685 25.3966 29.2601 25.3956 29.2518 25.3948C28.5652 25.3248 27.8717 25.7311 27.7634 26.3865C27.6614 27.0045 28.1516 27.576 28.8197 27.6289C29.4843 27.6815 30.1557 27.2344 30.3082 26.6311Z" fill="#23FBD9"/>
<path d="M24.7169 27.0166C24.7575 27.0263 24.7997 27.0342 24.8411 27.0399C25.4174 27.1198 26.0055 27.4032 26.3526 27.8579C26.5152 28.0693 26.6753 28.2823 26.8381 28.4936C27.1499 28.9086 27.263 29.4204 27.1156 29.9038C27.1075 29.9301 27.1006 29.9569 27.095 29.9838C27.0273 30.3067 27.1596 30.6906 27.4937 30.848C27.8722 31.0263 28.4611 30.9176 28.7919 30.7176C28.9844 30.6012 29.0855 30.4113 29.1781 30.2141C29.2628 30.0338 29.2562 29.8475 29.3468 29.6653C29.5429 29.2712 29.8533 28.9239 30.2138 28.6526C30.4434 28.4798 30.6751 28.3095 30.9092 28.1421C31.3587 27.8273 31.9237 27.6337 32.494 27.6364C32.5284 27.6366 32.5638 27.6311 32.6003 27.632C33.365 27.6526 33.7726 27.2044 33.9705 26.7179C34.0525 26.5162 34.0365 26.2869 33.8942 26.1074C33.7349 25.9064 33.474 25.8101 33.2204 25.7857C32.6031 25.7265 31.9889 26.1231 31.8153 26.6792C31.8132 26.6856 31.8113 26.692 31.8095 26.6984C31.6729 27.1703 31.3071 27.5564 30.8991 27.8446C30.5653 28.0771 30.2462 28.3256 29.9205 28.5674C29.5117 28.8646 29.0066 29.0665 28.4752 29.0435C28.473 29.0434 28.4707 29.0433 28.4684 29.0432C28.4662 29.0431 28.4639 29.043 28.4617 29.043C27.9645 29.0218 27.5226 28.7988 27.2171 28.4228C26.9856 28.1292 26.7625 27.8302 26.5289 27.5382C26.2036 27.135 26.0553 26.6228 26.1147 26.132C26.1156 26.1247 26.1165 26.1174 26.1173 26.11C26.1876 25.4495 25.6306 24.8614 24.9472 24.7452C24.3063 24.6362 23.6503 24.9846 23.6052 25.6219C23.5612 26.2432 24.0747 26.8633 24.7169 27.0166Z" fill="#23FBD9"/>
<path d="M23.9954 18.6851C23.6939 19.1847 23.0991 19.594 22.4958 19.7144C22.3807 19.7374 22.0875 19.8022 22.0001 19.6741C21.9192 19.5557 22.1263 19.39 22.1999 19.3232C22.4171 19.1258 22.669 18.9553 22.9146 18.7867C23.1604 18.618 23.4101 18.4436 23.6771 18.3083C23.7687 18.262 23.9983 18.1286 24.0969 18.2373C24.2021 18.3532 24.0534 18.5888 23.9954 18.6851Z" fill="#23FBD9"/>
<path d="M33.4887 21.0039C33.5381 21.0867 33.6896 21.3076 33.5779 21.3963C33.4566 21.4926 33.1969 21.3445 33.0924 21.2879C32.5503 20.9943 32.1026 20.4273 31.9585 19.8607C31.9311 19.7528 31.8564 19.4858 31.9908 19.4087C32.1165 19.3366 32.299 19.5336 32.371 19.6027C32.5871 19.8098 32.7753 20.0489 32.9613 20.2818C33.1472 20.5147 33.3382 20.7516 33.4887 21.0039Z" fill="#23FBD9"/>
<path d="M22.527 28.5631C22.5543 28.6696 22.6278 28.9349 22.4937 29.0121C22.3671 29.0848 22.1864 28.8901 22.1124 28.8191C21.8964 28.6121 21.7086 28.3728 21.5227 28.14C21.3368 27.907 21.1452 27.6703 20.9947 27.418C20.9451 27.3347 20.794 27.1143 20.9084 27.0282C21.0319 26.9352 21.2929 27.0876 21.3955 27.1443C21.9309 27.44 22.3824 27.9998 22.527 28.5631Z" fill="#23FBD9"/>
<path d="M32.2838 29.0984C32.0663 29.296 31.8142 29.4671 31.5683 29.6359C31.3228 29.8045 31.0733 29.9781 30.8065 30.1132C30.7175 30.1584 30.4855 30.2938 30.3851 30.1904C30.2783 30.0805 30.4266 29.85 30.4834 29.7569C30.787 29.2599 31.3808 28.8529 31.9798 28.7235C32.096 28.6985 32.3883 28.6276 32.4798 28.7519C32.5643 28.8666 32.3535 29.0351 32.2838 29.0984Z" fill="#23FBD9"/>
<path d="M24.6815 28.4754C24.6735 28.4732 24.6655 28.4711 24.6576 28.469C24.1043 28.3266 23.6412 27.9568 23.3148 27.5224C23.1221 27.2605 22.9334 26.9962 22.7314 26.7403C22.3997 26.3148 22.1399 25.8066 22.1473 25.2751C22.1474 25.2729 22.1474 25.2707 22.1474 25.2685C22.1475 25.2612 22.1475 25.2538 22.1474 25.2466C22.1459 24.7504 22.3889 24.3128 22.8206 24.0261C23.0356 23.8874 23.2537 23.7524 23.4605 23.6032C23.9353 23.2596 24.5531 23.1436 25.1447 23.2353C25.1545 23.2368 25.1644 23.2383 25.1742 23.2397C25.89 23.34 26.5842 22.8914 26.6977 22.2223C26.8052 21.5889 26.3523 20.9382 25.6404 20.8783C24.9502 20.8203 24.2792 21.3141 24.1378 21.936C24.1358 21.9446 24.134 21.9531 24.1323 21.9617C24.0263 22.4894 23.7251 23.0109 23.2607 23.332C23.0446 23.4803 22.8274 23.6267 22.6052 23.7669C22.1596 24.0402 21.6175 24.1132 21.0949 23.9877C21.0878 23.986 21.0807 23.9843 21.0737 23.9828C20.8227 23.929 20.5433 23.9454 20.33 24.0909C20.138 24.2217 20.0623 24.4327 20.0752 24.6528C20.1187 25.3969 20.4446 25.7293 21.1323 25.9294C21.146 25.9334 21.1587 25.9394 21.1718 25.944C21.736 26.1421 22.2304 26.5044 22.5882 26.9583C22.7514 27.1691 22.912 27.3816 23.0703 27.5955C23.3959 28.0435 23.6307 28.575 23.6729 29.1138C23.6743 29.1321 23.6764 29.1506 23.679 29.1694C23.7472 29.6764 24.1777 30.255 24.6973 30.4442C25.2209 30.6349 25.6492 30.2543 25.7019 29.7859C25.7674 29.2034 25.2754 28.6405 24.6815 28.4754Z" fill="#23FBD9"/>
<path d="M29.7628 21.5151C29.7217 21.5057 29.679 21.4981 29.637 21.493C29.0406 21.4205 28.4647 21.1124 28.1194 20.6426C27.9588 20.4256 27.8025 20.2061 27.6428 19.9886C27.3326 19.5568 27.2209 19.0395 27.3676 18.5427C27.3755 18.5157 27.3828 18.4882 27.3882 18.4609C27.48 17.9935 27.191 17.4741 26.6192 17.5069C26.3323 17.5233 25.9547 17.5679 25.7293 17.7252C25.4907 17.8918 25.3778 18.1977 25.2627 18.4576C25.2514 18.4832 25.2412 18.5086 25.2325 18.5337C25.0574 19.0375 24.6884 19.4861 24.2557 19.8196C24.0282 19.9914 23.7983 20.1602 23.5655 20.3257C23.1117 20.6414 22.5526 20.8312 21.9777 20.8143C21.9433 20.8133 21.9077 20.8211 21.8716 20.816C21.1558 20.7136 20.7051 21.2178 20.5132 21.7038C20.3167 22.2014 20.7423 22.6176 21.2512 22.695C21.8746 22.7897 22.4779 22.3844 22.649 21.8273C22.6511 21.8207 22.653 21.8141 22.6549 21.8075C22.7941 21.3253 23.1576 20.934 23.572 20.6354C23.9027 20.4001 24.2213 20.1517 24.5438 19.907C24.9507 19.605 25.4632 19.3944 25.9975 19.4205C25.9998 19.4206 26.0021 19.4207 26.0044 19.4208C26.0067 19.4209 26.009 19.421 26.0112 19.4211C26.5149 19.4415 26.9617 19.6721 27.2655 20.058C27.4982 20.3629 27.7174 20.6754 27.941 20.9859C28.2593 21.4278 28.4064 21.9632 28.3437 22.4834C28.3428 22.4911 28.3418 22.4989 28.341 22.5067C28.2694 23.1766 28.7984 23.7979 29.5109 23.9037C30.181 24.0033 30.8234 23.5973 30.8734 22.9515C30.9223 22.3206 30.4275 21.6674 29.7628 21.5151Z" fill="#23FBD9"/>
</g>
</svg>
